<?xml version="1.0" encoding="UTF-8"?>
<svg xmlns="http://www.w3.org/2000/svg" width="115" height="33" viewBox="0 0 115 33" fill="none">
  <path d="M0.0585938 16.5C0.0585938 7.38408 8.64164 0 19.223 0C29.8043 0 38.3873 7.38408 38.3873 16.5C38.3873 25.5969 29.8043 33 19.223 33C8.64164 33 0.0585938 25.6159 0.0585938 16.5Z" fill="#193964"></path>
  <path d="M16.8433 5.34771L21.2965 3.86328L21.3156 27.9377L16.8242 29.4602L16.8433 5.34771Z" fill="#EE3235"></path>
  <path d="M63.1848 25.9584C67.4668 25.9584 70.7211 23.4653 70.7211 19.1833C70.7211 14.8822 67.4668 12.3892 63.1848 12.3892C58.9028 12.3892 55.6484 14.8822 55.6484 19.1833C55.6484 23.4653 58.9028 25.9584 63.1848 25.9584ZM63.1848 22.8373C61.1294 22.8373 60.273 21.1245 60.273 19.2023C60.273 17.2611 61.1294 15.5483 63.1848 15.5483C65.2592 15.5483 66.0965 17.2611 66.0965 19.2023C66.0965 21.1054 65.2401 22.8373 63.1848 22.8373Z" fill="#EE3235"></path>
  <path d="M70.3008 15.9289H72.87V21.2005C72.87 24.2835 73.8406 26.0534 77.8371 26.0534C78.9599 26.0534 79.7973 25.9012 80.6537 25.806L80.5015 22.8943C80.0447 22.9704 79.588 23.0655 79.1312 23.0655C77.7229 23.0655 77.3423 22.2662 77.3423 20.7057V15.9289H80.4824V12.7887H77.3423V8.29736L72.9461 9.87695V12.7887H70.3008V15.9289Z" fill="#EE3235"></path>
  <path d="M96.1641 25.768H100.636V19.3354H100.693L104.271 25.768H109.695L104.823 18.7455L109.315 12.7887H104.424L100.693 18.2507H100.636V8.31641L96.1641 9.87696V25.768Z" fill="#EE3235"></path>
  <path d="M43.7148 25.768H48.1872V19.3354H48.2443L51.8221 25.768H57.246L52.374 18.7455L56.8844 12.7887H51.9744L48.2443 18.2507H48.1872V8.31641L43.7148 9.80083V25.768Z" fill="#EE3235"></path>
  <path d="M94.5669 25.8251C94.3576 24.7975 94.3195 23.7698 94.3195 22.7231V17.8321C94.3195 13.8355 91.4268 12.3892 88.0773 12.3892C86.1361 12.3892 84.4423 12.6746 82.8437 13.3217L82.9198 16.3857C84.1759 15.6815 85.6413 15.3961 87.1067 15.3961C88.7434 15.3961 90.0755 15.8719 90.0946 17.6608C89.5236 17.5656 88.7053 17.4895 87.9821 17.4895C85.5652 17.4895 81.207 17.9653 81.207 21.9809C81.207 24.8355 83.5288 26.1106 86.1171 26.1106C87.9821 26.1106 89.2382 25.3684 90.2659 23.7508H90.3229C90.3229 24.4359 90.3991 25.102 90.4181 25.8061H94.5669V25.8251ZM85.4319 21.6764C85.4319 20.4203 86.6499 19.9445 88.1724 19.9445C88.8576 19.9445 89.5046 20.0016 90.0755 20.0206C90.0755 21.5622 88.9908 23.1227 87.278 23.1227C86.2313 23.1037 85.4319 22.5708 85.4319 21.6764Z" fill="#EE3235"></path>
  <path d="M33.593 18.1938C33.1743 21.6384 31.2522 25.1211 27.0272 25.1211C24.5722 25.1211 22.6311 23.4464 21.2989 21.372V18.9741C22.9736 19.8115 24.5151 20.6869 26.4183 20.725C28.7401 20.763 30.8525 19.8685 31.7279 18.1938H33.593ZM19.4909 20.3634C19.9477 19.8115 21.2037 18.0987 21.2037 18.0987C22.8214 15.9101 24.7625 12.9222 27.9978 12.9222C29.4252 12.9222 30.8525 13.6073 31.6138 14.7111H33.4788C32.8317 11.2855 30.5099 7.95506 26.3802 7.95506C22.8785 7.95506 20.8231 10.2007 19.0722 12.6748C18.8819 12.9412 17.6259 14.616 17.1881 15.1869C15.5895 17.3564 13.7055 20.2301 10.5653 20.2301C8.50995 20.2301 6.45458 18.8218 6.41652 16.7474C6.37846 13.7405 9.06185 12.4083 12.1259 12.4464C13.5913 12.4654 15.8369 13.1315 16.8456 13.8166V10.5433C15.6466 9.19208 13.6293 7.91699 11.5359 7.91699C6.72102 7.91699 4.875 12.4654 4.875 16.3097C4.875 20.3063 7.21583 25.1021 12.1639 25.1021C15.6847 25.0641 17.5497 22.6852 19.4909 20.3634Z" fill="white"></path>
  <path d="M111.676 9.8201H111.809C112.019 9.8201 112.266 9.83913 112.266 10.1056C112.266 10.372 112.019 10.4101 111.809 10.4101H111.676V9.8201ZM111.257 11.6281H111.695V10.7336H111.828C112 10.7336 112.057 10.7907 112.133 10.962L112.399 11.6281H112.875L112.513 10.7907C112.475 10.6955 112.399 10.5813 112.285 10.5623C112.551 10.5242 112.723 10.3149 112.723 10.0675C112.723 9.47754 112.171 9.47754 111.714 9.47754H111.238V11.6281H111.257Z" fill="#0A0307"></path>
  <path d="M111.944 8.25977C112.572 8.25977 113.162 8.5262 113.562 8.94488C113.98 9.36357 114.228 9.9345 114.228 10.5625C114.228 11.1906 113.98 11.7615 113.562 12.1802C113.143 12.5989 112.572 12.8463 111.944 12.8463C111.316 12.8463 110.726 12.5798 110.326 12.1611C109.908 11.7425 109.66 11.1715 109.66 10.5435C109.66 9.91547 109.908 9.32551 110.345 8.92586C110.745 8.50717 111.316 8.25977 111.944 8.25977ZM111.944 8.8307C111.468 8.8307 111.03 9.02101 110.726 9.34454C110.421 9.66807 110.212 10.0868 110.212 10.5625C110.212 11.0383 110.402 11.457 110.726 11.7805C111.03 12.085 111.468 12.2753 111.944 12.2753C112.42 12.2753 112.838 12.085 113.162 11.7615C113.466 11.457 113.676 11.0193 113.676 10.5435C113.676 10.0677 113.485 9.63 113.162 9.3255C112.857 9.02101 112.42 8.8307 111.944 8.8307Z" fill="#0A0307"></path>
</svg>
